<svg width="160" height="23" viewBox="0 0 160 23" fill="none" xmlns="http://www.w3.org/2000/svg">
<path d="M0.54541 22.5164V1.14551H7.18905C8.67268 1.14551 9.98177 1.30914 11.1163 1.63642C12.2509 1.96369 13.1454 2.50914 13.8 3.27278C14.4545 4.03642 14.7818 5.07278 14.7818 6.38187C14.7818 7.40733 14.4763 8.35642 13.8763 9.22915C13.2763 10.1019 12.3381 10.7019 11.0836 11.0291V11.1601C12.6109 11.4219 13.789 11.9673 14.6181 12.7964C15.4472 13.6255 15.8618 14.771 15.8618 16.2328C15.8618 17.6946 15.5127 18.8291 14.8145 19.7673C14.1163 20.7055 13.1563 21.4037 11.9345 21.8401C10.7127 22.2873 9.31632 22.5164 7.74541 22.5164H0.54541ZM4.34177 9.91642H6.86177C8.36723 9.91642 9.44723 9.6546 10.1018 9.13096C10.7563 8.60733 11.0836 7.84369 11.0836 6.84005C11.0836 5.83642 10.7345 5.17096 10.0472 4.76733C9.35996 4.36369 8.32359 4.15642 6.95996 4.15642H4.34177V9.91642ZM4.34177 19.4728H7.35268C8.92359 19.4728 10.1236 19.2001 10.9527 18.6328C11.7818 18.0764 12.1963 17.1928 12.1963 15.971C12.1963 14.8364 11.7818 14.0182 10.9745 13.5382C10.1563 13.0473 8.94541 12.7964 7.36359 12.7964H4.35268V19.4728H4.34177Z" fill="white"/>
<path d="M21.2939 22.5164V1.11279H25.0576V19.3092H35.1049V22.5164H21.2939Z" fill="white"/>
<path d="M51.9595 22.5164H55.985L49.0468 1.11279H44.5959L37.6577 22.5164H41.5195L43.1886 16.7237H50.3123L51.9595 22.5164ZM44.0395 13.7455L44.7923 11.1273C45.1195 9.99279 45.4359 8.82552 45.7632 7.62552C46.0795 6.42552 46.385 5.23643 46.6904 4.05825H46.8213C47.105 5.23643 47.4104 6.42552 47.7595 7.62552C48.0977 8.82552 48.4141 9.99279 48.7195 11.1273L49.4613 13.7455H44.0395Z" fill="white"/>
<path d="M68.2251 22.9091C66.8942 22.9091 65.6396 22.6691 64.4724 22.1891C63.3051 21.7091 62.2796 21 61.396 20.0619C60.5124 19.1237 59.8251 17.9673 59.3342 16.5928C58.8433 15.2182 58.6033 13.6473 58.6033 11.88C58.6033 9.5455 59.0287 7.53823 59.9015 5.88005C60.7633 4.21096 61.9415 2.93459 63.436 2.05096C64.9305 1.16732 66.6215 0.730957 68.4978 0.730957C69.8287 0.730957 71.0178 1.00368 72.0651 1.54914C73.1124 2.09459 73.9633 2.71641 74.6178 3.41459L72.5233 5.77096C71.9996 5.2255 71.4105 4.80005 70.756 4.49459C70.1015 4.18914 69.3487 4.03641 68.4978 4.03641C67.3196 4.03641 66.2724 4.35278 65.3669 4.96368C64.4614 5.5855 63.7524 6.48005 63.2505 7.63641C62.7487 8.79278 62.4978 10.1782 62.4978 11.7928C62.4978 13.4073 62.7487 14.8037 63.2505 15.9819C63.7524 17.16 64.4615 18.0546 65.3778 18.6873C66.2942 19.3091 67.3633 19.6146 68.5851 19.6146C69.4796 19.6146 70.276 19.4291 70.9742 19.0473C71.6724 18.6655 72.3269 18.1419 72.9378 17.4873L75.0324 19.811C74.1814 20.8146 73.1887 21.5891 72.0542 22.1237C70.9196 22.6582 69.6433 22.92 68.2251 22.92V22.9091Z" fill="white"/>
<path d="M95.4872 22.5164L88.189 9.43643L94.8 1.11279H90.5454L82.92 10.8328H82.8218V1.11279H78.96V22.5164H82.8218V16.2001L85.8763 12.3492L91.2654 22.5164H95.4872Z" fill="white"/>
<path d="M110.334 22.9092C109.156 22.9092 107.956 22.6364 106.734 22.091C105.512 21.5455 104.487 20.6401 103.658 19.3746L105.883 17.0182C106.516 17.8692 107.214 18.5128 107.967 18.9492C108.72 19.3855 109.472 19.6037 110.236 19.6037C111.545 19.6037 112.516 19.2655 113.149 18.5673C113.781 17.8801 114.098 16.7346 114.098 15.1201V4.28734H105.425V1.11279H117.894V15.4473C117.894 16.8219 117.654 18.0764 117.174 19.2001C116.694 20.3237 115.909 21.2292 114.818 21.9055C113.727 22.5819 112.232 22.9201 110.334 22.9201V22.9092Z" fill="white"/>
<path d="M124.375 22.5164V1.11279H138.087V4.32007H128.171V9.78552H136.582V12.9928H128.171V19.3092H138.415V22.5164H124.375Z" fill="white"/>
<path d="M148.56 22.5162V4.28708H141.851V1.14526H159.066V4.28708H152.357V22.5162H148.56Z" fill="white"/>
</svg>
