<svg width="179" height="57" viewBox="0 0 179 57" fill="none" xmlns="http://www.w3.org/2000/svg">
<path d="M36.9082 3.4718C32.8583 1.01293 28.0852 -0.144178 23.0228 0.1451C21.2871 0.289739 19.5515 0.579018 17.9604 1.01294C17.8158 1.01294 17.6712 1.01294 17.5265 1.15758C15.2123 1.88077 12.8981 3.03788 10.7285 4.48428C10.4392 4.62892 10.2945 4.77355 10.0053 4.91819C9.86063 4.91819 9.86063 5.06283 9.71599 5.06283C9.57135 5.20747 9.42671 5.20747 9.42671 5.35211C4.2197 9.40201 0.748363 15.6215 0.314445 22.5642C-0.119473 29.7961 2.48403 36.3049 7.11249 41.078H7.25713C12.3195 46.1404 18.8283 48.5992 25.4817 48.31L25.1924 38.4745C21.2871 38.4745 17.2372 37.0281 14.3444 33.9907C9.42671 28.9283 8.9928 20.6839 13.6213 15.1876C14.3444 14.3197 15.0676 13.5965 15.9355 12.8733C16.2248 12.7287 16.3694 12.5841 16.6587 12.2948C16.8033 12.1502 16.948 12.1502 17.0926 12.0055C17.2372 12.0055 17.2372 11.8609 17.3819 11.8609C19.2622 10.7038 21.5764 9.98057 23.8906 9.83593C26.7834 9.69129 29.6762 10.4145 31.9904 11.8609C34.0154 13.018 36.4742 12.7287 38.0653 11.1377C40.2349 8.96809 39.6563 5.20747 36.9082 3.4718Z" fill="white"/>
<path d="M37.342 37.6077C39.5116 39.9219 38.933 43.8272 36.0403 45.2736C32.5689 47.1539 28.6637 48.1663 24.4691 48.1663C19.8407 48.1663 15.6461 46.8646 12.0302 44.695C9.28201 43.104 8.99273 39.1987 11.1623 37.0291H11.4516C13.0426 35.4381 15.5015 35.2935 17.3818 36.4506C19.5514 37.7523 22.0103 38.4755 24.6138 38.4755C27.0726 38.4755 29.3869 37.897 31.4118 36.7398C33.2921 35.5827 35.751 36.0167 37.342 37.6077Z" fill="white"/>
<path d="M24.4693 32.544C29.1823 32.544 33.003 28.7233 33.003 24.0103C33.003 19.2972 29.1823 15.4766 24.4693 15.4766C19.7562 15.4766 15.9355 19.2972 15.9355 24.0103C15.9355 28.7233 19.7562 32.544 24.4693 32.544Z" fill="white"/>
<path d="M70.3197 29.5064C70.3197 27.9154 69.8858 26.7582 69.1626 25.8904C68.2948 25.0226 66.8484 24.2994 64.6788 23.2869C60.7735 21.8405 57.8807 20.1048 56.2897 18.0799C54.554 16.055 53.6862 13.7407 53.6862 10.9926C53.6862 7.66588 54.8433 5.06237 57.1575 3.03742C59.4718 1.01247 62.5092 0 66.1252 0C68.584 0 70.609 0.433918 72.4893 1.44639C74.3696 2.45887 75.816 3.90526 76.8285 5.78557C77.8409 7.66588 78.2749 9.69083 78.2749 12.0051H70.4643C70.4643 10.1247 70.0304 8.82299 69.3072 7.81052C68.584 6.79804 67.4269 6.36412 65.9805 6.36412C64.5341 6.36412 63.5217 6.79804 62.7985 7.52124C62.0753 8.38907 61.6414 9.40155 61.6414 10.8479C61.6414 11.8604 62.0753 12.8729 62.9431 13.7407C63.8109 14.6086 65.2573 15.4764 67.5716 16.4889C71.3322 17.9353 74.225 19.5263 75.816 21.5512C77.5517 23.5762 78.4195 26.1797 78.4195 29.2171C78.4195 32.6885 77.407 35.292 75.2374 37.1723C73.0678 39.0526 70.1751 40.0651 66.4144 40.0651C63.9556 40.0651 61.6414 39.4865 59.4718 38.474C57.4468 37.4615 55.7111 36.0152 54.554 33.9902C53.3969 32.1099 52.8184 29.7957 52.8184 27.1922H60.7735C60.7735 29.5064 61.2074 31.0974 62.0753 32.1099C62.9431 33.1224 64.3895 33.7009 66.4144 33.7009C68.8733 33.8456 70.3197 32.3992 70.3197 29.5064Z" fill="white"/>
<path d="M111.253 26.6125C111.108 31.0963 109.806 34.423 107.492 36.7373C105.178 39.0515 101.996 40.2086 97.6566 40.2086C93.1728 40.2086 89.8461 38.7622 87.5319 35.8694C85.2177 32.9767 84.0605 28.7821 84.0605 23.4305V16.9217C84.0605 11.57 85.2177 7.37551 87.6765 4.48273C90.1354 1.58995 93.4621 0.143555 97.8013 0.143555C101.996 0.143555 105.323 1.30067 107.492 3.75953C109.662 6.07376 110.963 9.5451 111.253 14.0289H103.298C103.298 11.2808 102.864 9.40046 101.996 8.38799C101.273 7.37551 99.8262 6.79695 97.6566 6.79695C95.487 6.79695 94.0407 7.52015 93.1728 8.96654C92.305 10.4129 91.8711 12.8718 91.7264 16.1985V23.5751C91.7264 27.4804 92.1603 30.0839 93.0282 31.5303C93.896 32.9767 95.3424 33.6998 97.512 33.6998C99.5369 33.6998 100.983 33.2659 101.851 32.2535C102.574 31.241 103.153 29.3607 103.153 26.7572H111.253V26.6125Z" fill="white"/>
<path d="M143.941 26.6125C143.797 31.0963 142.495 34.423 140.181 36.7373C137.866 39.0515 134.684 40.2086 130.345 40.2086C125.861 40.2086 122.535 38.7622 120.22 35.8694C117.906 32.9767 116.749 28.7821 116.749 23.4305V16.9217C116.749 11.57 117.906 7.37551 120.365 4.48273C122.824 1.58995 126.151 0.143555 130.49 0.143555C134.684 0.143555 138.011 1.30067 140.181 3.75953C142.35 6.07376 143.652 9.5451 143.941 14.0289H135.986C135.986 11.2808 135.552 9.40046 134.684 8.38799C133.961 7.37551 132.515 6.79695 130.345 6.79695C128.176 6.79695 126.729 7.52015 125.861 8.96654C124.993 10.4129 124.56 12.8718 124.415 16.1985V23.5751C124.415 27.4804 124.849 30.0839 125.717 31.5303C126.584 32.9767 128.031 33.6998 130.2 33.6998C132.225 33.6998 133.672 33.2659 134.54 32.2535C135.263 31.241 135.841 29.3607 135.841 26.7572H143.941V26.6125Z" fill="white"/>
<path d="M177.497 39.7763H169.687V22.9982H157.971V39.7763H150.016V0.723741H157.971V16.4894H169.687V0.579102H177.497V39.7763Z" fill="white"/>
<path d="M55.2777 52.5036C55.2777 52.2143 55.133 51.925 54.9884 51.7804C54.8437 51.6357 54.5545 51.4911 54.1205 51.3464C53.6866 51.2018 53.2527 51.0572 53.1081 50.7679C52.8188 50.6233 52.6742 50.334 52.5295 50.1893C52.3849 49.9001 52.3849 49.7554 52.3849 49.4661C52.3849 48.8876 52.5295 48.5983 52.9634 48.1644C53.2527 47.8751 53.6866 47.7305 54.2652 47.7305C54.6991 47.7305 54.9884 47.8751 55.2777 48.0197C55.5669 48.1644 55.8562 48.4537 56.0009 48.7429C56.1455 49.0322 56.2901 49.3215 56.2901 49.7554H55.4223C55.4223 49.3215 55.2777 49.0322 55.133 48.8876C54.9884 48.7429 54.6991 48.5983 54.2652 48.5983C53.9759 48.5983 53.6866 48.7429 53.542 48.8876C53.3973 49.0322 53.2527 49.3215 53.2527 49.6108C53.2527 49.9001 53.3973 50.0447 53.542 50.334C53.6866 50.4786 53.9759 50.6233 54.4098 50.7679C54.9884 50.9125 55.4223 51.2018 55.7116 51.4911C56.0009 51.7804 56.1455 52.2143 56.1455 52.6482C56.1455 53.2268 56.0009 53.516 55.7116 53.9499C55.4223 54.2392 54.9884 54.3839 54.2652 54.3839C53.8313 54.3839 53.542 54.2392 53.2527 54.0946C52.9634 53.95 52.6742 53.6607 52.5295 53.3714C52.3849 53.0821 52.2402 52.7928 52.2402 52.3589H53.1081C53.1081 52.7928 53.2527 53.0821 53.3973 53.2268C53.6866 53.516 53.9759 53.516 54.2652 53.516C54.5545 53.516 54.8437 53.3714 55.133 53.2268C55.4223 53.0821 55.2777 52.9375 55.2777 52.5036Z" fill="white"/>
<path d="M58.0256 48.3086V49.4657H58.7488V50.0443H58.0256V52.937C58.0256 53.0817 58.0256 53.2263 58.1702 53.371C58.1702 53.5156 58.3149 53.5156 58.4595 53.5156C58.6042 53.5156 58.6042 53.5156 58.7488 53.5156V54.2388C58.6042 54.2388 58.4595 54.3834 58.1702 54.3834C57.881 54.3834 57.5917 54.2388 57.447 54.0942C57.3024 53.8049 57.1578 53.5156 57.1578 53.2263V50.3335H56.4346V49.755H57.1578V48.5979H58.0256V48.3086Z" fill="white"/>
<path d="M62.0762 54.239C62.0762 54.0944 61.9315 53.9497 61.9315 53.6605C61.6422 54.0944 61.353 54.239 60.919 54.239C60.4851 54.239 60.1959 54.0944 59.9066 53.8051C59.6173 53.5158 59.4727 53.2265 59.4727 52.7926C59.4727 52.3587 59.6173 51.9248 59.9066 51.6355C60.1959 51.3462 60.6298 51.2016 61.2083 51.2016H61.7869V50.7677C61.7869 50.4784 61.7869 50.3338 61.6422 50.1891C61.6422 50.0445 61.353 50.0445 61.2083 50.0445C60.919 50.0445 60.7744 50.0445 60.6298 50.1891C60.4851 50.3338 60.3405 50.4784 60.3405 50.7677H59.6173C59.6173 50.4784 59.6173 50.3338 59.7619 50.0445C59.9066 49.7552 60.0512 49.6106 60.3405 49.4659C60.6298 49.3213 60.919 49.3213 61.2083 49.3213C61.6422 49.3213 62.0762 49.4659 62.3654 49.7552C62.6547 50.0445 62.7994 50.3338 62.7994 50.7677V53.2265C62.7994 53.6605 62.7994 53.9497 62.944 54.239H62.0762ZM60.919 53.5158C61.0637 53.5158 61.353 53.5158 61.4976 53.3712C61.6422 53.2266 61.7869 53.0819 61.9315 52.9373V51.7802H61.4976C61.0637 51.7802 60.7744 51.9248 60.6298 52.0694C60.4851 52.2141 60.3405 52.5034 60.3405 52.7926C60.3405 53.0819 60.3405 53.2266 60.4851 53.3712C60.4851 53.5158 60.7744 53.5158 60.919 53.5158Z" fill="white"/>
<path d="M65.6918 50.19C65.5472 50.19 65.4026 50.19 65.4026 50.19C64.9686 50.19 64.6794 50.4793 64.5347 50.9132V54.3845H63.8115V49.6114H64.5347V50.0454C64.6794 49.6114 64.9686 49.4668 65.4026 49.4668C65.5472 49.4668 65.6918 49.4668 65.6918 49.4668V50.19Z" fill="white"/>
<path d="M67.717 48.3086V49.4657H68.4402V50.0443H67.717V52.937C67.717 53.0817 67.717 53.2263 67.8616 53.371C67.8616 53.5156 68.0063 53.5156 68.1509 53.5156C68.2956 53.5156 68.2956 53.5156 68.4402 53.5156V54.2388C68.2956 54.2388 68.1509 54.3834 67.8616 54.3834C67.5724 54.3834 67.2831 54.2388 67.1385 54.0942C66.9938 53.8049 66.8492 53.5156 66.8492 53.2263V50.3335H66.126V49.755H66.8492V48.5979H67.717V48.3086Z" fill="white"/>
<path d="M71.6219 53.806C71.3327 54.0953 71.0434 54.2399 70.4648 54.2399C70.0309 54.2399 69.7416 54.0953 69.4524 53.806C69.1631 53.5167 69.1631 53.0828 69.1631 52.5042V49.4668H69.8863V52.5042C69.8863 53.2274 70.1756 53.6613 70.6095 53.6613C71.0434 53.6613 71.4773 53.5167 71.6219 53.0828V49.6114H72.3451V54.3845H71.6219V53.806Z" fill="white"/>
<path d="M76.9743 52.0703C76.9743 52.7935 76.8296 53.3721 76.5404 53.806C76.2511 54.2399 75.8172 54.3845 75.3832 54.3845C74.9493 54.3845 74.5154 54.2399 74.2261 53.806V56.1202H73.5029V49.4668H74.2261V50.0454C74.5154 49.6114 74.8047 49.4668 75.3832 49.4668C75.9618 49.4668 76.2511 49.6114 76.5404 50.0454C76.8296 50.4793 76.9743 50.9132 76.9743 51.6364V52.0703ZM76.1064 51.6364C76.1064 51.0578 75.9618 50.7686 75.8172 50.4793C75.6725 50.19 75.5279 50.0454 75.094 50.0454C74.66 50.0454 74.3708 50.19 74.2261 50.6239V53.0828C74.3708 53.5167 74.66 53.6613 75.094 53.6613C75.3832 53.6613 75.6725 53.5167 75.8172 53.2274C75.9618 52.9381 76.1064 52.6489 76.1064 52.0703V51.6364Z" fill="white"/>
<path d="M83.9162 52.2143C83.9162 52.9375 83.6269 53.3714 83.3377 53.8053C83.0484 54.2392 82.4698 54.3839 81.8913 54.3839C81.3127 54.3839 80.7342 54.0946 80.3002 53.6607C79.8663 53.2268 79.7217 52.5036 79.7217 51.6357V50.4786C79.7217 49.6108 79.8663 49.0322 80.3002 48.4537C80.7342 48.0197 81.1681 47.7305 81.8913 47.7305C82.4698 47.7305 83.0484 47.8751 83.3377 48.309C83.6269 48.7429 83.9162 49.1769 83.9162 49.9001H83.0484C83.0484 49.3215 82.9038 49.0322 82.7591 48.7429C82.6145 48.4537 82.3252 48.4537 81.8913 48.4537C81.4573 48.4537 81.1681 48.5983 80.8788 49.0322C80.5895 49.3215 80.5895 49.9001 80.5895 50.4786V51.6357C80.5895 52.2143 80.7342 52.7928 80.8788 53.0821C81.1681 53.3714 81.4573 53.6607 81.8913 53.6607C82.3252 53.6607 82.6145 53.516 82.7591 53.3714C82.9038 53.2268 83.0484 52.7928 83.0484 52.2143H83.9162Z" fill="white"/>
<path d="M84.6396 51.6364C84.6396 50.9132 84.7843 50.3346 85.0736 50.0454C85.3628 49.6114 85.7968 49.4668 86.3753 49.4668C86.9539 49.4668 87.3878 49.6114 87.6771 50.0454C87.9663 50.4793 88.2556 50.9132 88.2556 51.6364V52.0703C88.2556 52.7935 88.111 53.3721 87.8217 53.6613C87.5324 54.0953 87.0985 54.2399 86.52 54.2399C85.9414 54.2399 85.5075 54.0953 85.2182 53.6613C84.9289 53.2274 84.7843 52.7935 84.6396 52.0703V51.6364ZM85.3628 52.0703C85.3628 52.5042 85.5075 52.9381 85.6521 53.2274C85.7968 53.5167 86.086 53.6613 86.3753 53.6613C87.0985 53.6613 87.3878 53.2274 87.3878 52.2149V51.6364C87.3878 51.2025 87.2432 50.7686 87.0985 50.4793C86.9539 50.19 86.6646 50.0454 86.3753 50.0454C86.086 50.0454 85.7968 50.19 85.6521 50.4793C85.5075 50.7686 85.3628 51.2025 85.3628 51.6364V52.0703Z" fill="white"/>
<path d="M89.9909 49.4659V50.0445C90.2802 49.6106 90.7141 49.4659 91.148 49.4659C92.0158 49.4659 92.4498 50.0445 92.4498 51.2016V54.3837H91.7266V51.2016C91.7266 50.7677 91.7266 50.623 91.5819 50.4784C91.2926 50.0445 91.148 50.0445 90.8587 50.0445C90.7141 50.0445 90.4248 50.0445 90.2802 50.1891C90.1355 50.3338 89.9909 50.4784 89.8462 50.623V54.0944H89.123V49.3213H89.9909V49.4659Z" fill="white"/>
<path d="M94.1851 49.4659V50.0445C94.4744 49.6106 94.9083 49.4659 95.3422 49.4659C96.2101 49.4659 96.644 50.0445 96.644 51.2016V54.3837H95.9208V51.2016C95.9208 50.7677 95.9208 50.623 95.7761 50.4784C95.6315 50.0445 95.4869 50.0445 95.1976 50.0445C95.053 50.0445 94.7637 50.0445 94.619 50.1891C94.4744 50.3338 94.3297 50.4784 94.1851 50.623V54.0944H93.4619V49.3213H94.1851V49.4659Z" fill="white"/>
<path d="M99.5374 54.2401C98.9589 54.2401 98.525 54.0955 98.2357 53.6615C97.9464 53.3723 97.8018 52.7937 97.8018 52.0705V51.492C97.8018 50.7688 97.9464 50.1902 98.2357 49.7563C98.525 49.3224 98.9589 49.1777 99.5374 49.1777C100.116 49.1777 100.55 49.3224 100.839 49.7563C101.128 50.0456 101.273 50.6241 101.273 51.3473V51.9259H98.6696V52.0705C98.6696 52.6491 98.8142 52.9383 98.9589 53.2276C99.1035 53.5169 99.3928 53.5169 99.8267 53.5169C100.116 53.5169 100.261 53.5169 100.405 53.3723C100.55 53.2276 100.695 53.083 100.839 52.9384L101.273 53.3723C100.695 54.0955 100.116 54.2401 99.5374 54.2401ZM99.3928 50.0456C99.1035 50.0456 98.8142 50.1902 98.6696 50.3348C98.525 50.6241 98.3803 50.9134 98.3803 51.3473H100.261V51.2027C100.261 50.7688 100.116 50.4795 99.9713 50.1902C99.8267 50.0456 99.6821 50.0456 99.3928 50.0456Z" fill="white"/>
<path d="M103.587 53.6605C103.877 53.6605 104.021 53.5158 104.166 53.3712C104.31 53.2266 104.455 52.9373 104.455 52.648H105.178C105.178 53.0819 105.034 53.5158 104.744 53.8051C104.455 54.0944 104.021 54.239 103.587 54.239C103.009 54.239 102.575 54.0944 102.285 53.6605C101.996 53.2265 101.852 52.7926 101.852 52.0694V51.4909C101.852 50.7677 101.996 50.1891 102.285 49.8998C102.575 49.4659 103.009 49.3213 103.587 49.3213C104.021 49.3213 104.455 49.4659 104.744 49.7552C105.034 50.0445 105.178 50.4784 105.178 51.057H104.455C104.455 50.7677 104.31 50.4784 104.166 50.3338C104.021 50.0445 103.877 50.0445 103.587 50.0445C103.298 50.0445 103.009 50.1891 102.864 50.3338C102.575 50.623 102.575 50.9123 102.575 51.4909V52.0694C102.575 52.648 102.719 53.0819 102.864 53.2265C102.864 53.5158 103.153 53.6605 103.587 53.6605Z" fill="white"/>
<path d="M106.913 48.3086V49.4657H107.636V50.0443H106.913V52.937C106.913 53.0817 106.913 53.2263 107.058 53.371C107.058 53.5156 107.202 53.5156 107.347 53.5156C107.492 53.5156 107.492 53.5156 107.636 53.5156V54.2388C107.492 54.2388 107.347 54.3834 107.058 54.3834C106.769 54.3834 106.479 54.2388 106.335 54.0942C106.19 53.8049 106.045 53.5156 106.045 53.2263V50.3335H105.467V49.755H106.19V48.5979H106.913V48.3086Z" fill="white"/>
<path d="M110.385 52.5036C110.385 52.2143 110.385 51.925 110.674 51.6357C110.819 51.3464 111.108 51.0572 111.542 50.7679C111.253 50.4786 111.108 50.1893 111.108 49.9001C110.963 49.6108 110.963 49.4661 110.963 49.3215C110.963 48.8876 111.108 48.4537 111.397 48.1644C111.687 47.8751 111.976 47.7305 112.41 47.7305C112.844 47.7305 113.133 47.8751 113.422 48.1644C113.711 48.4537 113.856 48.7429 113.856 49.1769C113.856 49.4661 113.856 49.6108 113.711 49.9001C113.567 50.0447 113.422 50.334 113.133 50.4786L112.699 50.9125L113.856 52.5036C114.001 52.2143 114.001 51.7804 114.001 51.3464H114.724C114.724 52.0696 114.579 52.6482 114.29 53.2268L115.013 54.3839H114.145L113.856 53.9499C113.711 54.0946 113.422 54.2392 113.278 54.3839C112.988 54.5285 112.844 54.5285 112.554 54.5285C111.976 54.5285 111.542 54.3839 111.253 54.0946C110.529 53.3714 110.385 52.9375 110.385 52.5036ZM112.12 53.6607C112.41 53.6607 112.844 53.516 113.133 53.2268L111.831 51.3464L111.687 51.4911C111.397 51.7804 111.108 52.2143 111.108 52.5036C111.108 52.7928 111.253 53.0821 111.397 53.3714C111.542 53.516 111.831 53.6607 112.12 53.6607ZM111.542 49.1769C111.542 49.3215 111.542 49.4661 111.687 49.6108C111.831 49.7554 111.831 49.9001 111.976 50.1893L112.265 49.9001C112.41 49.7554 112.554 49.6108 112.699 49.4661C112.699 49.3215 112.844 49.1769 112.844 49.0322C112.844 48.8876 112.844 48.7429 112.699 48.5983C112.554 48.4537 112.41 48.4537 112.265 48.4537C112.12 48.4537 111.976 48.5983 111.831 48.7429C111.687 48.7429 111.542 49.0322 111.542 49.1769Z" fill="white"/>
<path d="M121.378 52.2143C121.378 52.9375 121.089 53.3714 120.8 53.8053C120.51 54.2392 119.932 54.3839 119.353 54.3839C118.775 54.3839 118.196 54.0946 117.762 53.6607C117.328 53.2268 117.184 52.5036 117.184 51.6357V50.4786C117.184 49.6108 117.328 49.0322 117.762 48.4537C118.196 48.0197 118.63 47.7305 119.353 47.7305C119.932 47.7305 120.51 47.8751 120.8 48.309C121.089 48.7429 121.378 49.1769 121.378 49.9001H120.51C120.51 49.3215 120.366 49.0322 120.221 48.7429C120.076 48.4537 119.787 48.4537 119.353 48.4537C118.919 48.4537 118.63 48.5983 118.341 49.0322C118.051 49.3215 118.051 49.9001 118.051 50.4786V51.6357C118.051 52.2143 118.196 52.7928 118.341 53.0821C118.63 53.3714 118.919 53.6607 119.353 53.6607C119.787 53.6607 120.076 53.516 120.221 53.3714C120.366 53.2268 120.51 52.7928 120.51 52.2143H121.378Z" fill="white"/>
<path d="M122.101 51.6364C122.101 50.9132 122.245 50.3346 122.535 50.0454C122.824 49.6114 123.258 49.4668 123.836 49.4668C124.415 49.4668 124.849 49.6114 125.138 50.0454C125.427 50.4793 125.717 50.9132 125.717 51.6364V52.0703C125.717 52.7935 125.572 53.3721 125.283 53.6613C124.993 54.0953 124.559 54.2399 123.981 54.2399C123.402 54.2399 122.968 54.0953 122.679 53.6613C122.39 53.2274 122.245 52.7935 122.101 52.0703V51.6364ZM122.968 52.0703C122.968 52.5042 123.113 52.9381 123.258 53.2274C123.402 53.5167 123.692 53.6613 123.981 53.6613C124.704 53.6613 124.993 53.2274 124.993 52.2149V51.6364C124.993 51.2025 124.849 50.7686 124.704 50.4793C124.559 50.19 124.27 50.0454 123.981 50.0454C123.692 50.0454 123.402 50.19 123.258 50.4793C123.113 50.7686 122.968 51.2025 122.968 51.6364V52.0703Z" fill="white"/>
<path d="M127.597 54.2394H126.874V47.4414H127.597V54.2394Z" fill="white"/>
<path d="M129.477 54.2394H128.754V47.4414H129.477V54.2394Z" fill="white"/>
<path d="M133.094 54.239C133.094 54.0944 132.949 53.9497 132.949 53.6605C132.66 54.0944 132.371 54.239 131.937 54.239C131.503 54.239 131.213 54.0944 130.924 53.8051C130.635 53.5158 130.49 53.2265 130.49 52.7926C130.49 52.3587 130.635 51.9248 130.924 51.6355C131.213 51.3462 131.647 51.2016 132.226 51.2016H132.804V50.7677C132.804 50.4784 132.804 50.3338 132.66 50.1891C132.515 50.0445 132.371 50.0445 132.081 50.0445C131.792 50.0445 131.647 50.0445 131.503 50.1891C131.358 50.3338 131.213 50.4784 131.213 50.7677H130.49C130.49 50.4784 130.49 50.3338 130.635 50.0445C130.78 49.7552 130.924 49.6106 131.213 49.4659C131.503 49.3213 131.792 49.3213 132.081 49.3213C132.515 49.3213 132.949 49.4659 133.238 49.7552C133.528 50.0445 133.672 50.3338 133.672 50.7677V53.2265C133.672 53.6605 133.672 53.9497 133.817 54.239H133.094ZM132.081 53.5158C132.226 53.5158 132.515 53.5158 132.66 53.3712C132.804 53.2266 132.949 53.0819 133.094 52.9373V51.7802H132.66C132.226 51.7802 131.937 51.9248 131.792 52.0694C131.647 52.2141 131.503 52.5034 131.503 52.7926C131.503 53.0819 131.503 53.2266 131.647 53.3712C131.647 53.5158 131.792 53.5158 132.081 53.5158Z" fill="white"/>
<path d="M138.3 52.0688C138.3 52.792 138.156 53.3705 137.867 53.8044C137.577 54.2384 137.143 54.383 136.709 54.383C136.275 54.383 135.842 54.2384 135.552 53.8044V54.383H134.829V47.585H135.552V50.0438C135.842 49.6099 136.131 49.4653 136.709 49.4653C137.288 49.4653 137.577 49.6099 137.867 50.0438C138.156 50.4777 138.3 50.9117 138.3 51.7795V52.0688ZM137.577 51.6349C137.577 51.0563 137.433 50.6224 137.288 50.4778C137.143 50.1885 136.854 50.1885 136.565 50.1885C136.131 50.1885 135.842 50.3331 135.697 50.767V52.9366C135.842 53.3705 136.131 53.5152 136.565 53.5152C136.854 53.5152 137.143 53.3705 137.288 53.0812C137.433 52.792 137.577 52.5027 137.577 51.9241V51.6349Z" fill="white"/>
<path d="M139.023 51.6364C139.023 50.9132 139.168 50.3346 139.457 50.0454C139.747 49.6114 140.181 49.4668 140.759 49.4668C141.338 49.4668 141.772 49.6114 142.061 50.0454C142.35 50.4793 142.639 50.9132 142.639 51.6364V52.0703C142.639 52.7935 142.495 53.3721 142.206 53.6613C141.916 54.0953 141.482 54.2399 140.904 54.2399C140.325 54.2399 139.891 54.0953 139.602 53.6613C139.313 53.2274 139.168 52.7935 139.023 52.0703V51.6364ZM139.891 52.0703C139.891 52.5042 140.036 52.9381 140.181 53.2274C140.325 53.5167 140.614 53.6613 140.904 53.6613C141.627 53.6613 141.916 53.2274 141.916 52.2149V51.6364C141.916 51.2025 141.772 50.7686 141.627 50.4793C141.482 50.19 141.193 50.0454 140.904 50.0454C140.614 50.0454 140.325 50.19 140.181 50.4793C140.036 50.7686 139.891 51.2025 139.891 51.6364V52.0703Z" fill="white"/>
<path d="M145.677 50.19C145.533 50.19 145.388 50.19 145.388 50.19C144.954 50.19 144.665 50.4793 144.52 50.9132V54.3845H143.797V49.6114H144.52V50.0454C144.665 49.6114 144.954 49.4668 145.388 49.4668C145.533 49.4668 145.677 49.4668 145.677 49.4668V50.19Z" fill="white"/>
<path d="M148.569 54.239C148.569 54.0944 148.425 53.9497 148.425 53.6605C148.135 54.0944 147.846 54.239 147.412 54.239C146.978 54.239 146.689 54.0944 146.4 53.8051C146.11 53.5158 145.966 53.2265 145.966 52.7926C145.966 52.3587 146.11 51.9248 146.4 51.6355C146.689 51.3462 147.123 51.2016 147.701 51.2016H148.28V50.7677C148.28 50.4784 148.28 50.3338 148.135 50.1891C147.991 50.0445 147.846 50.0445 147.557 50.0445C147.268 50.0445 147.123 50.0445 146.978 50.1891C146.834 50.3338 146.689 50.4784 146.689 50.7677H145.966C145.966 50.4784 145.966 50.3338 146.11 50.0445C146.255 49.7552 146.4 49.6106 146.689 49.4659C146.978 49.3213 147.268 49.3213 147.557 49.3213C147.991 49.3213 148.425 49.4659 148.714 49.7552C149.003 50.0445 149.148 50.3338 149.148 50.7677V53.2265C149.148 53.6605 149.148 53.9497 149.293 54.239H148.569ZM147.557 53.5158C147.701 53.5158 147.991 53.5158 148.135 53.3712C148.28 53.2266 148.425 53.0819 148.569 52.9373V51.7802H148.135C147.701 51.7802 147.412 51.9248 147.268 52.0694C147.123 52.2141 146.978 52.5034 146.978 52.7926C146.978 53.0819 146.978 53.2266 147.123 53.3712C147.123 53.5158 147.268 53.5158 147.557 53.5158Z" fill="white"/>
<path d="M151.318 48.3086V49.4657H152.041V50.0443H151.318V52.937C151.318 53.0817 151.318 53.2263 151.462 53.371C151.462 53.5156 151.607 53.5156 151.752 53.5156C151.896 53.5156 151.896 53.5156 152.041 53.5156V54.2388C151.896 54.2388 151.752 54.3834 151.462 54.3834C151.173 54.3834 150.884 54.2388 150.739 54.0942C150.594 53.8049 150.45 53.5156 150.45 53.2263V50.3335H149.727V49.755H150.45V48.5979H151.318V48.3086Z" fill="white"/>
<path d="M153.777 48.1644C153.777 48.309 153.777 48.4537 153.632 48.4537C153.488 48.5983 153.488 48.5983 153.343 48.5983C153.198 48.5983 153.054 48.5983 153.054 48.4537C152.909 48.309 152.909 48.309 152.909 48.1644C152.909 48.0197 152.909 47.8751 153.054 47.8751C153.198 47.7305 153.198 47.7305 153.343 47.7305C153.488 47.7305 153.632 47.7305 153.632 47.8751C153.777 47.8751 153.777 48.0197 153.777 48.1644ZM153.777 54.2392H153.054V49.4661H153.777V54.2392Z" fill="white"/>
<path d="M154.789 51.6364C154.789 50.9132 154.934 50.3346 155.223 50.0454C155.512 49.6114 155.946 49.4668 156.525 49.4668C157.103 49.4668 157.537 49.6114 157.826 50.0454C158.116 50.4793 158.405 50.9132 158.405 51.6364V52.0703C158.405 52.7935 158.26 53.3721 157.971 53.6613C157.682 54.0953 157.248 54.2399 156.669 54.2399C156.091 54.2399 155.657 54.0953 155.368 53.6613C155.078 53.2274 154.934 52.7935 154.789 52.0703V51.6364ZM155.512 52.0703C155.512 52.5042 155.657 52.9381 155.802 53.2274C155.946 53.5167 156.235 53.6613 156.525 53.6613C157.248 53.6613 157.537 53.2274 157.537 52.2149V51.6364C157.537 51.2025 157.393 50.7686 157.248 50.4793C157.103 50.19 156.814 50.0454 156.525 50.0454C156.235 50.0454 155.946 50.19 155.802 50.4793C155.657 50.7686 155.512 51.2025 155.512 51.6364V52.0703Z" fill="white"/>
<path d="M159.997 49.4668V50.0454C160.286 49.6114 160.72 49.4668 161.154 49.4668C162.022 49.4668 162.456 50.0454 162.456 51.2025V54.3845H161.732V51.2025C161.732 50.7686 161.732 50.6239 161.588 50.4793C161.443 50.3346 161.298 50.19 161.009 50.19C160.864 50.19 160.575 50.19 160.431 50.3346C160.286 50.4793 160.141 50.6239 159.997 50.7686V54.2399H159.273V49.4668H159.997Z" fill="white"/>
<path d="M169.831 54.2391H168.964V51.3463H166.36V54.2391H165.492V47.875H166.36V50.6231H168.964V47.875H169.831V54.2391Z" fill="white"/>
<path d="M173.448 53.806C173.159 54.0953 172.87 54.2399 172.291 54.2399C171.857 54.2399 171.568 54.0953 171.279 53.806C170.989 53.5167 170.989 53.0828 170.989 52.5042V49.4668H171.712V52.5042C171.712 53.2274 172.002 53.6613 172.436 53.6613C172.87 53.6613 173.303 53.5167 173.448 53.0828V49.6114H174.171V54.3845H173.448V53.806Z" fill="white"/>
<path d="M178.799 52.0688C178.799 52.792 178.655 53.3705 178.366 53.8044C178.076 54.2384 177.642 54.383 177.208 54.383C176.775 54.383 176.341 54.2384 176.051 53.8044V54.383H175.328V47.585H176.051V50.0438C176.341 49.6099 176.63 49.4653 177.208 49.4653C177.787 49.4653 178.076 49.6099 178.366 50.0438C178.655 50.4777 178.799 50.9117 178.799 51.7795V52.0688ZM177.932 51.6349C177.932 51.0563 177.787 50.6224 177.642 50.4778C177.498 50.1885 177.208 50.1885 176.919 50.1885C176.485 50.1885 176.196 50.3331 176.051 50.767V52.9366C176.196 53.3705 176.485 53.5152 176.919 53.5152C177.208 53.5152 177.498 53.3705 177.642 53.0812C177.787 52.792 177.932 52.5027 177.932 51.9241V51.6349Z" fill="white"/>
<path d="M52.6576 43.8686L52.6562 44.5918L178.058 44.8228L178.06 44.0997L52.6576 43.8686Z" fill="white"/>
</svg>
